<?xml version="1.0" ?>

<svg fill="#000000" width="800px" height="800px" viewBox="0 0 100 100" xmlns="http://www.w3.org/2000/svg">

<title/>

<g data-name="Calque 2" id="Calque_2">

<path d="M47.32,99.5h6a1.5,1.5,0,0,0,1.5-1.5V47a6.74,6.74,0,0,0,2.27-5V33.25a6.75,6.75,0,0,0-13.5,0V42a6.74,6.74,0,0,0,2.27,5V98A1.5,1.5,0,0,0,47.32,99.5Zm-.77-66.25a3.75,3.75,0,0,1,7.5,0V42a3.75,3.75,0,0,1-7.5,0ZM48.82,96.5V48.58a6.53,6.53,0,0,0,3,0V96.5Z"/>

<path d="M41.46,38.82a1.5,1.5,0,0,0,.28-2.1,10.67,10.67,0,0,1-2.2-6.5c0-6,3.31-10.83,6.52-15.47a49.77,49.77,0,0,0,4.24-6.9,49.77,49.77,0,0,0,4.24,6.9c3.2,4.64,6.51,9.45,6.51,15.47a10.65,10.65,0,0,1-2.2,6.5,1.5,1.5,0,0,0,.29,2.1,1.51,1.51,0,0,0,2.1-.29,13.62,13.62,0,0,0,2.81-8.31c0-7-3.74-12.38-7-17.17C54.33,9.16,51.8,5.49,51.8,1.72a1.5,1.5,0,1,0-3,0c0,3.77-2.53,7.44-5.21,11.33-3.3,4.79-7.05,10.21-7.05,17.17a13.68,13.68,0,0,0,2.81,8.31A1.51,1.51,0,0,0,41.46,38.82Z"/>

</g>

</svg>